<mxfile host="Electron" agent="Mozilla/5.0 (Windows NT 10.0; Win64; x64) AppleWebKit/537.36 (KHTML, like Gecko) draw.io/26.0.16 Chrome/132.0.6834.196 Electron/34.2.0 Safari/537.36" version="26.0.16">
  <diagram name="Page-1" id="qpTTQ1OhhX1sm3LaRLt_">
    <mxGraphModel dx="2435" dy="731" grid="0" gridSize="10" guides="1" tooltips="1" connect="1" arrows="1" fold="1" page="0" pageScale="1" pageWidth="2000" pageHeight="2000" math="0" shadow="0">
      <root>
        <mxCell id="0" />
        <mxCell id="1" parent="0" />
        <mxCell id="mXB9GCnB7u3D_WUfMY-O-1" value="Hệ thống" style="swimlane;whiteSpace=wrap;html=1;startSize=23;fontSize=16;" parent="1" vertex="1">
          <mxGeometry x="-121" y="100" width="1191" height="940" as="geometry" />
        </mxCell>
        <mxCell id="x4gssTUdt1weJog9Xo-V-8" value="" style="edgeStyle=orthogonalEdgeStyle;rounded=0;orthogonalLoop=1;jettySize=auto;html=1;fontSize=16;" parent="mXB9GCnB7u3D_WUfMY-O-1" source="mXB9GCnB7u3D_WUfMY-O-3" target="mXB9GCnB7u3D_WUfMY-O-27" edge="1">
          <mxGeometry relative="1" as="geometry" />
        </mxCell>
        <mxCell id="mXB9GCnB7u3D_WUfMY-O-3" value="Hiển thị biểu mẫu nhập tên tài khoản và mật khẩu" style="rounded=1;whiteSpace=wrap;html=1;arcSize=40;fontColor=#000000;fillColor=default;strokeColor=light-dark(#000000, #ff9090);align=center;verticalAlign=middle;fontFamily=Helvetica;fontSize=16;fillStyle=solid;gradientColor=none;" parent="mXB9GCnB7u3D_WUfMY-O-1" vertex="1">
          <mxGeometry x="268" y="76" width="180" height="70" as="geometry" />
        </mxCell>
        <mxCell id="mXB9GCnB7u3D_WUfMY-O-4" style="edgeStyle=orthogonalEdgeStyle;rounded=0;orthogonalLoop=1;jettySize=auto;html=1;exitX=0.5;exitY=1;exitDx=0;exitDy=0;entryX=0.5;entryY=0;entryDx=0;entryDy=0;entryPerimeter=0;fontSize=16;" parent="mXB9GCnB7u3D_WUfMY-O-1" source="mXB9GCnB7u3D_WUfMY-O-5" target="mXB9GCnB7u3D_WUfMY-O-28" edge="1">
          <mxGeometry relative="1" as="geometry">
            <mxPoint x="390" y="420" as="targetPoint" />
            <Array as="points" />
          </mxGeometry>
        </mxCell>
        <mxCell id="mXB9GCnB7u3D_WUfMY-O-5" value="Kiểm tra tên tài khoản và mật khẩu" style="rounded=1;whiteSpace=wrap;html=1;arcSize=40;fontColor=#000000;fillColor=default;strokeColor=light-dark(#000000, #ff9090);align=center;verticalAlign=middle;fontFamily=Helvetica;fontSize=16;fillStyle=solid;gradientColor=none;" parent="mXB9GCnB7u3D_WUfMY-O-1" vertex="1">
          <mxGeometry x="569" y="320" width="180" height="70" as="geometry" />
        </mxCell>
        <mxCell id="mXB9GCnB7u3D_WUfMY-O-6" style="edgeStyle=orthogonalEdgeStyle;rounded=0;orthogonalLoop=1;jettySize=auto;html=1;exitX=0.5;exitY=1;exitDx=0;exitDy=0;entryX=0.5;entryY=0;entryDx=0;entryDy=0;exitPerimeter=0;entryPerimeter=0;fontSize=16;" parent="mXB9GCnB7u3D_WUfMY-O-1" source="mXB9GCnB7u3D_WUfMY-O-28" target="mXB9GCnB7u3D_WUfMY-O-29" edge="1">
          <mxGeometry relative="1" as="geometry">
            <mxPoint x="390" y="490" as="sourcePoint" />
            <mxPoint x="390" y="530" as="targetPoint" />
          </mxGeometry>
        </mxCell>
        <mxCell id="mXB9GCnB7u3D_WUfMY-O-7" value="[Có]" style="edgeLabel;html=1;align=center;verticalAlign=middle;resizable=0;points=[];fontSize=16;" parent="mXB9GCnB7u3D_WUfMY-O-6" vertex="1" connectable="0">
          <mxGeometry x="-0.0417" y="-3" relative="1" as="geometry">
            <mxPoint x="3" as="offset" />
          </mxGeometry>
        </mxCell>
        <mxCell id="mXB9GCnB7u3D_WUfMY-O-8" value="[Không]" style="edgeStyle=orthogonalEdgeStyle;rounded=0;orthogonalLoop=1;jettySize=auto;html=1;exitX=1;exitY=0.5;exitDx=0;exitDy=0;entryX=0;entryY=0.5;entryDx=0;entryDy=0;exitPerimeter=0;fontSize=16;" parent="mXB9GCnB7u3D_WUfMY-O-1" source="mXB9GCnB7u3D_WUfMY-O-28" target="mXB9GCnB7u3D_WUfMY-O-18" edge="1">
          <mxGeometry x="-0.2378" relative="1" as="geometry">
            <mxPoint x="150" y="455" as="targetPoint" />
            <mxPoint as="offset" />
            <mxPoint x="475" y="455" as="sourcePoint" />
          </mxGeometry>
        </mxCell>
        <mxCell id="mXB9GCnB7u3D_WUfMY-O-9" style="edgeStyle=orthogonalEdgeStyle;rounded=0;orthogonalLoop=1;jettySize=auto;html=1;exitX=0.5;exitY=1;exitDx=0;exitDy=0;entryX=0.5;entryY=0;entryDx=0;entryDy=0;exitPerimeter=0;fontSize=16;" parent="mXB9GCnB7u3D_WUfMY-O-1" source="mXB9GCnB7u3D_WUfMY-O-30" target="mXB9GCnB7u3D_WUfMY-O-22" edge="1">
          <mxGeometry relative="1" as="geometry">
            <mxPoint x="510" y="800" as="targetPoint" />
            <mxPoint x="390" y="710" as="sourcePoint" />
          </mxGeometry>
        </mxCell>
        <mxCell id="mXB9GCnB7u3D_WUfMY-O-10" value="[Không]" style="edgeLabel;html=1;align=center;verticalAlign=middle;resizable=0;points=[];fontSize=16;" parent="mXB9GCnB7u3D_WUfMY-O-9" vertex="1" connectable="0">
          <mxGeometry x="-0.0823" y="2" relative="1" as="geometry">
            <mxPoint as="offset" />
          </mxGeometry>
        </mxCell>
        <mxCell id="mXB9GCnB7u3D_WUfMY-O-11" style="edgeStyle=orthogonalEdgeStyle;rounded=0;orthogonalLoop=1;jettySize=auto;html=1;exitX=1;exitY=0.5;exitDx=0;exitDy=0;entryX=0;entryY=0.5;entryDx=0;entryDy=0;exitPerimeter=0;fontSize=16;" parent="mXB9GCnB7u3D_WUfMY-O-1" source="mXB9GCnB7u3D_WUfMY-O-30" target="mXB9GCnB7u3D_WUfMY-O-20" edge="1">
          <mxGeometry relative="1" as="geometry">
            <mxPoint x="475" y="675" as="sourcePoint" />
          </mxGeometry>
        </mxCell>
        <mxCell id="mXB9GCnB7u3D_WUfMY-O-12" value="[Có]" style="edgeLabel;html=1;align=center;verticalAlign=middle;resizable=0;points=[];fontSize=16;" parent="mXB9GCnB7u3D_WUfMY-O-11" vertex="1" connectable="0">
          <mxGeometry x="-0.2272" y="1" relative="1" as="geometry">
            <mxPoint as="offset" />
          </mxGeometry>
        </mxCell>
        <mxCell id="mXB9GCnB7u3D_WUfMY-O-13" style="edgeStyle=orthogonalEdgeStyle;rounded=0;orthogonalLoop=1;jettySize=auto;html=1;exitX=0.5;exitY=1;exitDx=0;exitDy=0;entryX=0.5;entryY=0;entryDx=0;entryDy=0;exitPerimeter=0;entryPerimeter=0;fontSize=16;" parent="mXB9GCnB7u3D_WUfMY-O-1" source="mXB9GCnB7u3D_WUfMY-O-29" target="mXB9GCnB7u3D_WUfMY-O-30" edge="1">
          <mxGeometry relative="1" as="geometry">
            <mxPoint x="390" y="600" as="sourcePoint" />
            <mxPoint x="390" y="640" as="targetPoint" />
          </mxGeometry>
        </mxCell>
        <mxCell id="mXB9GCnB7u3D_WUfMY-O-14" value="[Có]" style="edgeLabel;html=1;align=center;verticalAlign=middle;resizable=0;points=[];fontSize=16;" parent="mXB9GCnB7u3D_WUfMY-O-13" vertex="1" connectable="0">
          <mxGeometry x="0.0441" y="-1" relative="1" as="geometry">
            <mxPoint as="offset" />
          </mxGeometry>
        </mxCell>
        <mxCell id="mXB9GCnB7u3D_WUfMY-O-15" style="edgeStyle=orthogonalEdgeStyle;rounded=0;orthogonalLoop=1;jettySize=auto;html=1;exitX=0;exitY=0.5;exitDx=0;exitDy=0;entryX=1;entryY=0.5;entryDx=0;entryDy=0;exitPerimeter=0;fontSize=16;" parent="mXB9GCnB7u3D_WUfMY-O-1" source="mXB9GCnB7u3D_WUfMY-O-29" target="mXB9GCnB7u3D_WUfMY-O-25" edge="1">
          <mxGeometry relative="1" as="geometry">
            <mxPoint x="305" y="565" as="sourcePoint" />
          </mxGeometry>
        </mxCell>
        <mxCell id="mXB9GCnB7u3D_WUfMY-O-16" value="[Không]" style="edgeLabel;html=1;align=center;verticalAlign=middle;resizable=0;points=[];fontSize=16;" parent="mXB9GCnB7u3D_WUfMY-O-15" vertex="1" connectable="0">
          <mxGeometry x="-0.0807" y="2" relative="1" as="geometry">
            <mxPoint as="offset" />
          </mxGeometry>
        </mxCell>
        <mxCell id="mXB9GCnB7u3D_WUfMY-O-17" style="edgeStyle=orthogonalEdgeStyle;rounded=0;orthogonalLoop=1;jettySize=auto;html=1;fontSize=16;" parent="mXB9GCnB7u3D_WUfMY-O-1" source="mXB9GCnB7u3D_WUfMY-O-18" target="mXB9GCnB7u3D_WUfMY-O-23" edge="1">
          <mxGeometry relative="1" as="geometry" />
        </mxCell>
        <mxCell id="mXB9GCnB7u3D_WUfMY-O-18" value="Thông báo tài khoản không tồn tại" style="rounded=1;whiteSpace=wrap;html=1;arcSize=40;fontColor=#000000;fillColor=default;strokeColor=light-dark(#000000, #ff9090);align=center;verticalAlign=middle;fontFamily=Helvetica;fontSize=16;fillStyle=solid;gradientColor=none;" parent="mXB9GCnB7u3D_WUfMY-O-1" vertex="1">
          <mxGeometry x="837.47" y="423" width="180" height="70" as="geometry" />
        </mxCell>
        <mxCell id="mXB9GCnB7u3D_WUfMY-O-19" style="edgeStyle=orthogonalEdgeStyle;rounded=0;orthogonalLoop=1;jettySize=auto;html=1;exitX=1;exitY=0.5;exitDx=0;exitDy=0;entryX=0;entryY=0.5;entryDx=0;entryDy=0;fontSize=16;" parent="mXB9GCnB7u3D_WUfMY-O-1" source="mXB9GCnB7u3D_WUfMY-O-20" target="mXB9GCnB7u3D_WUfMY-O-24" edge="1">
          <mxGeometry relative="1" as="geometry" />
        </mxCell>
        <mxCell id="mXB9GCnB7u3D_WUfMY-O-20" value="Thông báo tài khoản hiện đang bị khóa" style="rounded=1;whiteSpace=wrap;html=1;arcSize=40;fontColor=#000000;fillColor=default;strokeColor=light-dark(#000000, #ff9090);align=center;verticalAlign=middle;fontFamily=Helvetica;fontSize=16;fillStyle=solid;gradientColor=none;" parent="mXB9GCnB7u3D_WUfMY-O-1" vertex="1">
          <mxGeometry x="837.47" y="643" width="180" height="70" as="geometry" />
        </mxCell>
        <mxCell id="mXB9GCnB7u3D_WUfMY-O-21" style="edgeStyle=orthogonalEdgeStyle;rounded=0;orthogonalLoop=1;jettySize=auto;html=1;exitX=0.5;exitY=1;exitDx=0;exitDy=0;entryX=0.5;entryY=0;entryDx=0;entryDy=0;fontSize=16;" parent="mXB9GCnB7u3D_WUfMY-O-1" source="mXB9GCnB7u3D_WUfMY-O-22" target="mXB9GCnB7u3D_WUfMY-O-26" edge="1">
          <mxGeometry relative="1" as="geometry" />
        </mxCell>
        <mxCell id="mXB9GCnB7u3D_WUfMY-O-22" value="Dẫn người dùng đến trang chính dựa trên chức vụ của họ" style="rounded=1;whiteSpace=wrap;html=1;arcSize=40;fontColor=#000000;fillColor=default;strokeColor=light-dark(#000000, #ff9090);align=center;verticalAlign=middle;fontFamily=Helvetica;fontSize=16;fillStyle=solid;gradientColor=none;" parent="mXB9GCnB7u3D_WUfMY-O-1" vertex="1">
          <mxGeometry x="557.47" y="753" width="180" height="70" as="geometry" />
        </mxCell>
        <mxCell id="mXB9GCnB7u3D_WUfMY-O-23" value="" style="ellipse;html=1;shape=endState;fillColor=#000000;strokeColor=#000000;fontSize=16;" parent="mXB9GCnB7u3D_WUfMY-O-1" vertex="1">
          <mxGeometry x="1137.47" y="443" width="30" height="30" as="geometry" />
        </mxCell>
        <mxCell id="mXB9GCnB7u3D_WUfMY-O-24" value="" style="ellipse;html=1;shape=endState;fillColor=#000000;strokeColor=#000000;fontSize=16;" parent="mXB9GCnB7u3D_WUfMY-O-1" vertex="1">
          <mxGeometry x="1137.47" y="663" width="30" height="30" as="geometry" />
        </mxCell>
        <mxCell id="mXB9GCnB7u3D_WUfMY-O-25" value="Thông báo mật khẩu sai" style="rounded=1;whiteSpace=wrap;html=1;arcSize=40;fontColor=#000000;fillColor=default;strokeColor=light-dark(#000000, #ff9090);align=center;verticalAlign=middle;fontFamily=Helvetica;fontSize=16;fillStyle=solid;gradientColor=none;" parent="mXB9GCnB7u3D_WUfMY-O-1" vertex="1">
          <mxGeometry x="284" y="533" width="180" height="70" as="geometry" />
        </mxCell>
        <mxCell id="mXB9GCnB7u3D_WUfMY-O-26" value="" style="ellipse;html=1;shape=endState;fillColor=#000000;strokeColor=#000000;fontSize=16;" parent="mXB9GCnB7u3D_WUfMY-O-1" vertex="1">
          <mxGeometry x="632.47" y="893" width="30" height="30" as="geometry" />
        </mxCell>
        <mxCell id="mXB9GCnB7u3D_WUfMY-O-27" value="Vào trạng thái chờ dữ liệu đầu vào từ người dùng" style="rounded=1;whiteSpace=wrap;html=1;arcSize=40;fontColor=#000000;fillColor=default;strokeColor=light-dark(#000000, #ff9090);align=center;verticalAlign=middle;fontFamily=Helvetica;fontSize=16;fillStyle=solid;gradientColor=none;" parent="mXB9GCnB7u3D_WUfMY-O-1" vertex="1">
          <mxGeometry x="628" y="76" width="180" height="70" as="geometry" />
        </mxCell>
        <mxCell id="mXB9GCnB7u3D_WUfMY-O-28" value="" style="strokeWidth=2;html=1;shape=mxgraph.flowchart.decision;whiteSpace=wrap;fontSize=16;" parent="mXB9GCnB7u3D_WUfMY-O-1" vertex="1">
          <mxGeometry x="602.47" y="423" width="90" height="70" as="geometry" />
        </mxCell>
        <mxCell id="mXB9GCnB7u3D_WUfMY-O-29" value="" style="strokeWidth=2;html=1;shape=mxgraph.flowchart.decision;whiteSpace=wrap;fontSize=16;" parent="mXB9GCnB7u3D_WUfMY-O-1" vertex="1">
          <mxGeometry x="602.47" y="533" width="90" height="70" as="geometry" />
        </mxCell>
        <mxCell id="mXB9GCnB7u3D_WUfMY-O-30" value="" style="strokeWidth=2;html=1;shape=mxgraph.flowchart.decision;whiteSpace=wrap;fontSize=16;" parent="mXB9GCnB7u3D_WUfMY-O-1" vertex="1">
          <mxGeometry x="602.47" y="643" width="90" height="70" as="geometry" />
        </mxCell>
        <mxCell id="mXB9GCnB7u3D_WUfMY-O-31" value="[Kiểm tra tài khoản&amp;nbsp;&lt;div&gt;có tồn tại hay không]&lt;/div&gt;" style="text;html=1;align=center;verticalAlign=middle;resizable=0;points=[];autosize=1;strokeColor=none;fillColor=none;fontSize=16;" parent="mXB9GCnB7u3D_WUfMY-O-1" vertex="1">
          <mxGeometry x="434.47" y="405" width="166" height="50" as="geometry" />
        </mxCell>
        <mxCell id="mXB9GCnB7u3D_WUfMY-O-32" value="[Kiểm tra mật khẩu&lt;div&gt;đúng hay không]&lt;/div&gt;" style="text;html=1;align=center;verticalAlign=middle;resizable=0;points=[];autosize=1;strokeColor=none;fillColor=none;fontSize=16;" parent="mXB9GCnB7u3D_WUfMY-O-1" vertex="1">
          <mxGeometry x="440" y="489" width="152" height="50" as="geometry" />
        </mxCell>
        <mxCell id="mXB9GCnB7u3D_WUfMY-O-33" value="[Kiểm tra tài khoản&amp;nbsp;&lt;div&gt;có bị khóa&amp;nbsp;&lt;span style=&quot;background-color: transparent; color: light-dark(rgb(0, 0, 0), rgb(255, 255, 255));&quot;&gt;hay không]&lt;/span&gt;&lt;/div&gt;" style="text;html=1;align=center;verticalAlign=middle;resizable=0;points=[];autosize=1;strokeColor=none;fillColor=none;fontSize=16;" parent="mXB9GCnB7u3D_WUfMY-O-1" vertex="1">
          <mxGeometry x="425.47" y="630" width="174" height="50" as="geometry" />
        </mxCell>
        <mxCell id="mXB9GCnB7u3D_WUfMY-O-34" value="Người dùng" style="swimlane;whiteSpace=wrap;html=1;startSize=23;fontSize=16;" parent="1" vertex="1">
          <mxGeometry x="-846" y="100" width="726" height="940" as="geometry" />
        </mxCell>
        <mxCell id="mXB9GCnB7u3D_WUfMY-O-35" style="edgeStyle=orthogonalEdgeStyle;shape=connector;rounded=0;orthogonalLoop=1;jettySize=auto;html=1;exitX=0.5;exitY=1;exitDx=0;exitDy=0;entryX=0.5;entryY=0;entryDx=0;entryDy=0;strokeColor=default;align=center;verticalAlign=middle;fontFamily=Helvetica;fontSize=16;fontColor=default;labelBackgroundColor=default;endArrow=classic;" parent="mXB9GCnB7u3D_WUfMY-O-34" source="mXB9GCnB7u3D_WUfMY-O-36" target="mXB9GCnB7u3D_WUfMY-O-37" edge="1">
          <mxGeometry relative="1" as="geometry" />
        </mxCell>
        <mxCell id="mXB9GCnB7u3D_WUfMY-O-36" value="" style="ellipse;html=1;shape=startState;fillColor=#000000;strokeColor=light-dark(#000000,#FF9090);fontSize=16;labelBackgroundColor=#000000;" parent="mXB9GCnB7u3D_WUfMY-O-34" vertex="1">
          <mxGeometry x="140" y="33" width="30" height="30" as="geometry" />
        </mxCell>
        <mxCell id="mXB9GCnB7u3D_WUfMY-O-37" value="Mở trang đăng nhập" style="rounded=1;whiteSpace=wrap;html=1;arcSize=40;fontSize=16;" parent="mXB9GCnB7u3D_WUfMY-O-34" vertex="1">
          <mxGeometry x="95" y="101" width="120" height="40" as="geometry" />
        </mxCell>
        <mxCell id="KQdyMl5QC_RIr1iz1hzF-23" style="edgeStyle=orthogonalEdgeStyle;rounded=0;orthogonalLoop=1;jettySize=auto;html=1;exitX=0.5;exitY=1;exitDx=0;exitDy=0;entryX=0.5;entryY=0;entryDx=0;entryDy=0;fontSize=16;" parent="mXB9GCnB7u3D_WUfMY-O-34" source="mXB9GCnB7u3D_WUfMY-O-38" target="mXB9GCnB7u3D_WUfMY-O-39" edge="1">
          <mxGeometry relative="1" as="geometry" />
        </mxCell>
        <mxCell id="mXB9GCnB7u3D_WUfMY-O-38" value="Nhập tên tài khoản và mật khẩu" style="rounded=1;whiteSpace=wrap;html=1;arcSize=40;fontColor=#000000;fillColor=default;strokeColor=light-dark(#000000, #ff9090);align=center;verticalAlign=middle;fontFamily=Helvetica;fontSize=16;fillStyle=solid;gradientColor=none;" parent="mXB9GCnB7u3D_WUfMY-O-34" vertex="1">
          <mxGeometry x="45" y="329" width="180" height="70" as="geometry" />
        </mxCell>
        <mxCell id="mXB9GCnB7u3D_WUfMY-O-39" value="Nhấn nút đăng nhập" style="rounded=1;whiteSpace=wrap;html=1;arcSize=40;fontColor=#000000;fillColor=default;strokeColor=light-dark(#000000, #ff9090);align=center;verticalAlign=middle;fontFamily=Helvetica;fontSize=16;fillStyle=solid;gradientColor=none;" parent="mXB9GCnB7u3D_WUfMY-O-34" vertex="1">
          <mxGeometry x="45" y="487" width="180" height="70" as="geometry" />
        </mxCell>
        <mxCell id="KQdyMl5QC_RIr1iz1hzF-3" style="edgeStyle=orthogonalEdgeStyle;rounded=0;orthogonalLoop=1;jettySize=auto;html=1;exitX=0;exitY=0.5;exitDx=0;exitDy=0;entryX=0.5;entryY=0;entryDx=0;entryDy=0;fontSize=16;" parent="mXB9GCnB7u3D_WUfMY-O-34" source="KQdyMl5QC_RIr1iz1hzF-1" target="mXB9GCnB7u3D_WUfMY-O-38" edge="1">
          <mxGeometry relative="1" as="geometry" />
        </mxCell>
        <mxCell id="KQdyMl5QC_RIr1iz1hzF-4" value="&amp;nbsp;[Đăng nhập lần đầu]" style="edgeLabel;html=1;align=center;verticalAlign=middle;resizable=0;points=[];fontSize=16;" parent="KQdyMl5QC_RIr1iz1hzF-3" vertex="1" connectable="0">
          <mxGeometry x="-0.4198" y="-5" relative="1" as="geometry">
            <mxPoint as="offset" />
          </mxGeometry>
        </mxCell>
        <mxCell id="KQdyMl5QC_RIr1iz1hzF-6" style="edgeStyle=orthogonalEdgeStyle;rounded=0;orthogonalLoop=1;jettySize=auto;html=1;exitX=0.5;exitY=1;exitDx=0;exitDy=0;entryX=0.5;entryY=0;entryDx=0;entryDy=0;fontSize=16;" parent="mXB9GCnB7u3D_WUfMY-O-34" source="KQdyMl5QC_RIr1iz1hzF-1" target="KQdyMl5QC_RIr1iz1hzF-8" edge="1">
          <mxGeometry relative="1" as="geometry">
            <mxPoint x="350" y="322" as="targetPoint" />
          </mxGeometry>
        </mxCell>
        <mxCell id="KQdyMl5QC_RIr1iz1hzF-7" value="[Đăng nhập sau khi sai mật khẩu]" style="edgeLabel;html=1;align=center;verticalAlign=middle;resizable=0;points=[];fontSize=16;" parent="KQdyMl5QC_RIr1iz1hzF-6" vertex="1" connectable="0">
          <mxGeometry x="-0.6081" y="1" relative="1" as="geometry">
            <mxPoint as="offset" />
          </mxGeometry>
        </mxCell>
        <mxCell id="KQdyMl5QC_RIr1iz1hzF-1" value="" style="rhombus;whiteSpace=wrap;html=1;fontSize=16;" parent="mXB9GCnB7u3D_WUfMY-O-34" vertex="1">
          <mxGeometry x="320" y="201" width="59" height="56" as="geometry" />
        </mxCell>
        <mxCell id="KQdyMl5QC_RIr1iz1hzF-19" style="edgeStyle=orthogonalEdgeStyle;rounded=0;orthogonalLoop=1;jettySize=auto;html=1;exitX=1;exitY=0.5;exitDx=0;exitDy=0;entryX=0.25;entryY=0;entryDx=0;entryDy=0;fontSize=16;" parent="mXB9GCnB7u3D_WUfMY-O-34" source="KQdyMl5QC_RIr1iz1hzF-8" target="KQdyMl5QC_RIr1iz1hzF-16" edge="1">
          <mxGeometry relative="1" as="geometry" />
        </mxCell>
        <mxCell id="KQdyMl5QC_RIr1iz1hzF-20" value="[Quên mật khẩu]" style="edgeLabel;html=1;align=center;verticalAlign=middle;resizable=0;points=[];fontSize=16;" parent="KQdyMl5QC_RIr1iz1hzF-19" vertex="1" connectable="0">
          <mxGeometry x="-0.4286" y="-3" relative="1" as="geometry">
            <mxPoint x="5" y="28" as="offset" />
          </mxGeometry>
        </mxCell>
        <mxCell id="KQdyMl5QC_RIr1iz1hzF-8" value="" style="rhombus;whiteSpace=wrap;html=1;fontSize=16;" parent="mXB9GCnB7u3D_WUfMY-O-34" vertex="1">
          <mxGeometry x="323.5" y="337" width="52" height="43" as="geometry" />
        </mxCell>
        <mxCell id="KQdyMl5QC_RIr1iz1hzF-9" style="edgeStyle=orthogonalEdgeStyle;rounded=0;orthogonalLoop=1;jettySize=auto;html=1;exitX=0;exitY=0.5;exitDx=0;exitDy=0;entryX=1.002;entryY=0.42;entryDx=0;entryDy=0;entryPerimeter=0;fontSize=16;" parent="mXB9GCnB7u3D_WUfMY-O-34" source="KQdyMl5QC_RIr1iz1hzF-8" target="mXB9GCnB7u3D_WUfMY-O-38" edge="1">
          <mxGeometry relative="1" as="geometry" />
        </mxCell>
        <mxCell id="KQdyMl5QC_RIr1iz1hzF-10" value="[Tiếp tục&lt;div&gt;đăng nhập]&lt;/div&gt;" style="edgeLabel;html=1;align=center;verticalAlign=middle;resizable=0;points=[];fontSize=16;" parent="KQdyMl5QC_RIr1iz1hzF-9" vertex="1" connectable="0">
          <mxGeometry x="0.0048" y="-1" relative="1" as="geometry">
            <mxPoint as="offset" />
          </mxGeometry>
        </mxCell>
        <mxCell id="KQdyMl5QC_RIr1iz1hzF-22" value="" style="edgeStyle=orthogonalEdgeStyle;rounded=0;orthogonalLoop=1;jettySize=auto;html=1;fontSize=16;" parent="mXB9GCnB7u3D_WUfMY-O-34" source="KQdyMl5QC_RIr1iz1hzF-16" target="KQdyMl5QC_RIr1iz1hzF-21" edge="1">
          <mxGeometry relative="1" as="geometry" />
        </mxCell>
        <mxCell id="KQdyMl5QC_RIr1iz1hzF-16" value="Chọn nút Quên mật khẩu" style="rounded=1;whiteSpace=wrap;html=1;arcSize=40;fontColor=#000000;fillColor=default;strokeColor=light-dark(#000000, #ff9090);align=center;verticalAlign=middle;fontFamily=Helvetica;fontSize=16;fillStyle=solid;gradientColor=none;" parent="mXB9GCnB7u3D_WUfMY-O-34" vertex="1">
          <mxGeometry x="371" y="446" width="134.5" height="38" as="geometry" />
        </mxCell>
        <mxCell id="rdGIpfzjWybDT5MygG3F-4" style="edgeStyle=orthogonalEdgeStyle;rounded=0;orthogonalLoop=1;jettySize=auto;html=1;exitX=0.75;exitY=0;exitDx=0;exitDy=0;" edge="1" parent="mXB9GCnB7u3D_WUfMY-O-34" source="KQdyMl5QC_RIr1iz1hzF-21" target="mXB9GCnB7u3D_WUfMY-O-37">
          <mxGeometry relative="1" as="geometry">
            <mxPoint x="83" y="135" as="targetPoint" />
            <Array as="points">
              <mxPoint x="630" y="131" />
            </Array>
          </mxGeometry>
        </mxCell>
        <mxCell id="KQdyMl5QC_RIr1iz1hzF-21" value="Quên mật khẩu" style="whiteSpace=wrap;html=1;fontSize=16;strokeColor=light-dark(#000000, #ff9090);fontColor=#000000;rounded=1;arcSize=40;fillStyle=solid;gradientColor=none;" parent="mXB9GCnB7u3D_WUfMY-O-34" vertex="1">
          <mxGeometry x="540" y="362" width="120" height="60" as="geometry" />
        </mxCell>
        <mxCell id="rdGIpfzjWybDT5MygG3F-1" style="edgeStyle=orthogonalEdgeStyle;rounded=0;orthogonalLoop=1;jettySize=auto;html=1;exitX=0;exitY=0;exitDx=91;exitDy=49.5;exitPerimeter=0;endArrow=none;startFill=0;" edge="1" parent="mXB9GCnB7u3D_WUfMY-O-34" source="KQdyMl5QC_RIr1iz1hzF-24" target="KQdyMl5QC_RIr1iz1hzF-21">
          <mxGeometry relative="1" as="geometry" />
        </mxCell>
        <mxCell id="KQdyMl5QC_RIr1iz1hzF-24" value="Activity Diagram: Quên mật khẩu" style="shape=note;size=20;whiteSpace=wrap;html=1;fontSize=16;" parent="mXB9GCnB7u3D_WUfMY-O-34" vertex="1">
          <mxGeometry x="489" y="257" width="91" height="79" as="geometry" />
        </mxCell>
        <mxCell id="mXB9GCnB7u3D_WUfMY-O-44" style="edgeStyle=orthogonalEdgeStyle;rounded=0;orthogonalLoop=1;jettySize=auto;html=1;exitX=0;exitY=0.5;exitDx=0;exitDy=0;entryX=0.5;entryY=0;entryDx=0;entryDy=0;fontSize=16;" parent="1" source="mXB9GCnB7u3D_WUfMY-O-25" target="KQdyMl5QC_RIr1iz1hzF-1" edge="1">
          <mxGeometry relative="1" as="geometry">
            <Array as="points">
              <mxPoint x="-5" y="668" />
              <mxPoint x="-5" y="705" />
              <mxPoint x="-807" y="705" />
              <mxPoint x="-807" y="257" />
              <mxPoint x="-497" y="257" />
            </Array>
          </mxGeometry>
        </mxCell>
        <mxCell id="x4gssTUdt1weJog9Xo-V-10" style="edgeStyle=orthogonalEdgeStyle;rounded=0;orthogonalLoop=1;jettySize=auto;html=1;exitX=1;exitY=0.5;exitDx=0;exitDy=0;entryX=0;entryY=0.5;entryDx=0;entryDy=0;fontSize=16;" parent="1" source="mXB9GCnB7u3D_WUfMY-O-39" target="mXB9GCnB7u3D_WUfMY-O-5" edge="1">
          <mxGeometry relative="1" as="geometry" />
        </mxCell>
        <mxCell id="KQdyMl5QC_RIr1iz1hzF-2" style="edgeStyle=orthogonalEdgeStyle;rounded=0;orthogonalLoop=1;jettySize=auto;html=1;exitX=0.5;exitY=1;exitDx=0;exitDy=0;entryX=1;entryY=0.5;entryDx=0;entryDy=0;fontSize=16;" parent="1" source="mXB9GCnB7u3D_WUfMY-O-27" target="KQdyMl5QC_RIr1iz1hzF-1" edge="1">
          <mxGeometry relative="1" as="geometry" />
        </mxCell>
        <mxCell id="rdGIpfzjWybDT5MygG3F-5" style="edgeStyle=orthogonalEdgeStyle;rounded=0;orthogonalLoop=1;jettySize=auto;html=1;exitX=1;exitY=0.25;exitDx=0;exitDy=0;entryX=0;entryY=0.5;entryDx=0;entryDy=0;" edge="1" parent="1" source="mXB9GCnB7u3D_WUfMY-O-37" target="mXB9GCnB7u3D_WUfMY-O-3">
          <mxGeometry relative="1" as="geometry" />
        </mxCell>
      </root>
    </mxGraphModel>
  </diagram>
</mxfile>
